<svg xmlns="http://www.w3.org/2000/svg" width="900" height="540" viewBox="0 0 900 540" role="img" aria-labelledby="title desc">
  <title id="title">Task management app preview</title>
  <desc id="desc">A task board interface with status columns and blue action cards.</desc>
  <defs>
    <linearGradient id="taskbg" x1="0" x2="1" y1="0" y2="1">
      <stop stop-color="#f8fafc"/>
      <stop offset="1" stop-color="#dbeafe"/>
    </linearGradient>
  </defs>
  <rect width="900" height="540" fill="url(#taskbg)"/>
  <rect x="66" y="54" width="768" height="432" rx="22" fill="#0f172a"/>
  <rect x="104" y="94" width="250" height="350" rx="16" fill="#f8fafc"/>
  <rect x="386" y="94" width="410" height="350" rx="16" fill="#f8fafc"/>
  <rect x="132" y="126" width="118" height="18" rx="9" fill="#2563eb"/>
  <rect x="414" y="126" width="146" height="18" rx="9" fill="#2563eb"/>
  <rect x="132" y="178" width="184" height="64" rx="12" fill="#dbeafe"/>
  <rect x="132" y="266" width="184" height="64" rx="12" fill="#bfdbfe"/>
  <rect x="414" y="178" width="154" height="92" rx="12" fill="#dbeafe"/>
  <rect x="594" y="178" width="154" height="92" rx="12" fill="#bfdbfe"/>
  <rect x="414" y="300" width="334" height="34" rx="17" fill="#93c5fd"/>
  <path d="M452 363l26 26 58-70" fill="none" stroke="#2563eb" stroke-width="18" stroke-linecap="round" stroke-linejoin="round"/>
</svg>
