<svg xmlns="http://www.w3.org/2000/svg" width="900" height="540" viewBox="0 0 900 540" role="img" aria-labelledby="title desc">
  <title id="title">Soft Drink Management System preview</title>
  <desc id="desc">An Android inventory app preview with product cards, orders, and Firebase style data panels.</desc>
  <defs>
    <linearGradient id="bg" x1="0" x2="1" y1="0" y2="1">
      <stop stop-color="#f8fafc"/>
      <stop offset="1" stop-color="#dbeafe"/>
    </linearGradient>
  </defs>
  <rect width="900" height="540" fill="url(#bg)"/>
  <rect x="326" y="42" width="252" height="456" rx="30" fill="#0f172a"/>
  <rect x="346" y="82" width="212" height="376" rx="18" fill="#f8fafc"/>
  <rect x="372" y="116" width="136" height="18" rx="9" fill="#2563eb"/>
  <rect x="372" y="162" width="160" height="74" rx="14" fill="#dbeafe"/>
  <rect x="372" y="256" width="160" height="74" rx="14" fill="#bfdbfe"/>
  <rect x="372" y="350" width="160" height="62" rx="14" fill="#93c5fd"/>
  <circle cx="422" cy="199" r="24" fill="#1d4ed8"/>
  <rect x="452" y="190" width="72" height="12" rx="6" fill="#2563eb"/>
  <circle cx="422" cy="293" r="24" fill="#0ea5e9"/>
  <rect x="452" y="284" width="72" height="12" rx="6" fill="#2563eb"/>
  <rect x="112" y="136" width="190" height="92" rx="16" fill="#ffffff" opacity=".94"/>
  <rect x="622" y="136" width="190" height="92" rx="16" fill="#ffffff" opacity=".94"/>
  <rect x="112" y="276" width="190" height="92" rx="16" fill="#ffffff" opacity=".94"/>
  <rect x="622" y="276" width="190" height="92" rx="16" fill="#ffffff" opacity=".94"/>
  <rect x="142" y="170" width="112" height="14" rx="7" fill="#2563eb"/>
  <rect x="652" y="170" width="112" height="14" rx="7" fill="#2563eb"/>
  <rect x="142" y="310" width="112" height="14" rx="7" fill="#2563eb"/>
  <rect x="652" y="310" width="112" height="14" rx="7" fill="#2563eb"/>
</svg>
