<svg xmlns="http://www.w3.org/2000/svg" width="900" height="540" viewBox="0 0 900 540" role="img" aria-labelledby="title desc">
  <title id="title">Mohan Logistics Express Cargo preview</title>
  <desc id="desc">A logistics dashboard preview with tracking map, shipment cards, and route indicators.</desc>
  <defs>
    <linearGradient id="bg" x1="0" x2="1" y1="0" y2="1">
      <stop stop-color="#eff6ff"/>
      <stop offset="1" stop-color="#dbeafe"/>
    </linearGradient>
    <linearGradient id="accent" x1="0" x2="1">
      <stop stop-color="#2563eb"/>
      <stop offset="1" stop-color="#0ea5e9"/>
    </linearGradient>
  </defs>
  <rect width="900" height="540" fill="url(#bg)"/>
  <rect x="60" y="54" width="780" height="432" rx="20" fill="#ffffff" opacity=".94"/>
  <rect x="92" y="86" width="180" height="368" rx="16" fill="#0f172a"/>
  <rect x="304" y="86" width="504" height="118" rx="16" fill="url(#accent)"/>
  <rect x="336" y="120" width="180" height="18" rx="9" fill="#ffffff" opacity=".92"/>
  <rect x="336" y="154" width="290" height="14" rx="7" fill="#bfdbfe"/>
  <rect x="304" y="230" width="310" height="224" rx="16" fill="#e0f2fe"/>
  <path d="M340 404C420 314 470 334 536 260" fill="none" stroke="#2563eb" stroke-width="12" stroke-linecap="round"/>
  <circle cx="340" cy="404" r="14" fill="#1d4ed8"/>
  <circle cx="536" cy="260" r="14" fill="#1d4ed8"/>
  <rect x="646" y="230" width="162" height="64" rx="14" fill="#dbeafe"/>
  <rect x="646" y="318" width="162" height="64" rx="14" fill="#bfdbfe"/>
  <rect x="646" y="406" width="162" height="48" rx="14" fill="#93c5fd"/>
  <path d="M130 364h104v48H130zM130 286h104v40H130zM130 144h104v110H130z" fill="#1d4ed8"/>
</svg>
