<svg xmlns="http://www.w3.org/2000/svg" width="900" height="540" viewBox="0 0 900 540" role="img" aria-labelledby="title desc">
  <title id="title">Smart Turf Booking System preview</title>
  <desc id="desc">A sports turf booking dashboard with schedule slots, admin cards, and booking fields.</desc>
  <defs>
    <linearGradient id="bg" x1="0" x2="1" y1="0" y2="1">
      <stop stop-color="#ecfeff"/>
      <stop offset="1" stop-color="#dbeafe"/>
    </linearGradient>
  </defs>
  <rect width="900" height="540" fill="url(#bg)"/>
  <rect x="76" y="62" width="752" height="416" rx="22" fill="#ffffff" opacity=".94"/>
  <rect x="112" y="104" width="684" height="70" rx="16" fill="#0f172a"/>
  <rect x="146" y="130" width="190" height="16" rx="8" fill="#dbeafe"/>
  <rect x="112" y="216" width="236" height="246" rx="16" fill="#eff6ff"/>
  <rect x="384" y="216" width="412" height="246" rx="16" fill="#f8fafc"/>
  <rect x="142" y="250" width="160" height="18" rx="9" fill="#2563eb"/>
  <rect x="142" y="302" width="120" height="44" rx="12" fill="#bfdbfe"/>
  <rect x="142" y="366" width="170" height="44" rx="12" fill="#93c5fd"/>
  <rect x="420" y="250" width="92" height="54" rx="12" fill="#dbeafe"/>
  <rect x="536" y="250" width="92" height="54" rx="12" fill="#bfdbfe"/>
  <rect x="652" y="250" width="92" height="54" rx="12" fill="#93c5fd"/>
  <rect x="420" y="330" width="92" height="54" rx="12" fill="#bfdbfe"/>
  <rect x="536" y="330" width="92" height="54" rx="12" fill="#93c5fd"/>
  <rect x="652" y="330" width="92" height="54" rx="12" fill="#2563eb"/>
  <path d="M552 428c34-40 76-40 110 0" fill="none" stroke="#2563eb" stroke-width="12" stroke-linecap="round"/>
  <circle cx="608" cy="414" r="20" fill="#1d4ed8"/>
</svg>
