<svg xmlns="http://www.w3.org/2000/svg" width="900" height="540" viewBox="0 0 900 540" role="img" aria-labelledby="title desc">
  <title id="title">Weather app preview</title>
  <desc id="desc">A clean weather app interface with forecast cards and a weather icon.</desc>
  <defs>
    <linearGradient id="sky" x1="0" x2="1" y1="0" y2="1">
      <stop stop-color="#e0f2fe"/>
      <stop offset="1" stop-color="#bfdbfe"/>
    </linearGradient>
  </defs>
  <rect width="900" height="540" fill="url(#sky)"/>
  <rect x="78" y="62" width="744" height="416" rx="22" fill="#ffffff" opacity=".9"/>
  <rect x="116" y="106" width="668" height="78" rx="16" fill="#0f172a"/>
  <rect x="148" y="132" width="190" height="18" rx="9" fill="#e0f2fe"/>
  <circle cx="614" cy="268" r="72" fill="#facc15"/>
  <path d="M504 314c14-41 53-70 99-70 43 0 80 26 96 63 42 4 75 40 75 83H455c0-39 29-71 66-76z" fill="#2563eb" opacity=".9"/>
  <rect x="128" y="234" width="218" height="34" rx="17" fill="#2563eb"/>
  <rect x="128" y="294" width="160" height="18" rx="9" fill="#94a3b8"/>
  <rect x="128" y="334" width="212" height="18" rx="9" fill="#cbd5e1"/>
  <rect x="128" y="394" width="140" height="46" rx="12" fill="#dbeafe"/>
  <rect x="292" y="394" width="140" height="46" rx="12" fill="#bfdbfe"/>
  <rect x="456" y="394" width="140" height="46" rx="12" fill="#93c5fd"/>
</svg>
